<svg xmlns="http://www.w3.org/2000/svg" width="1440" height="900"><style>text{font-family:Arial;fill:#17201d}.serif{font-family:Georgia}.muted{fill:#68706b}.white{fill:#fff}.tiny{font-size:11px;letter-spacing:2px}</style><rect width="1440" height="900" fill="#f3f1ea"/><rect width="1440" height="60" fill="#17201d"/><text x="28" y="38" class="white tiny">▣ GROUNDLINE</text><text x="260" y="37" fill="#a7b2ad" font-size="11">● Local research workspace</text><text x="1300" y="37" class="white" font-size="11">⌘ Analyst</text><text x="150" y="155" class="tiny muted">RESEARCH → EVIDENCE → MODEL → DECISION</text><text x="150" y="225" class="serif" font-size="48">Apple Inc.</text><text x="150" y="278" class="serif" font-size="29" fill="#1d5446">Official filing evidence</text><rect x="150" y="335" width="1140" height="135" fill="#17201d"/><text x="180" y="375" fill="#a7b2ad" class="tiny">LIVE RESEARCH WORKFLOW</text><rect x="180" y="397" width="650" height="49" fill="#fff"/><text x="200" y="428" font-size="15">7 reported facts</text><rect x="840" y="397" width="220" height="49" fill="#fbfaf6"/><text x="860" y="428" font-size="13">Valuation</text><rect x="1070" y="397" width="190" height="49" fill="#1d5446"/><text x="1100" y="428" class="white" font-size="13">Research company →</text><rect x="150" y="510" width="550" height="280" fill="#fbfaf6" stroke="#d6d4ca"/><text x="180" y="550" class="tiny muted">RESEARCH PLAN</text><text x="185" y="595" font-size="13">✓  Resolve legal entity</text><text x="185" y="633" font-size="13">✓  Collect official filings</text><text x="185" y="671" font-size="13">✓  Normalize claims</text><text x="185" y="709" font-size="13">○  Assess coverage</text><text x="185" y="747" font-size="13">○  Generate model</text><rect x="720" y="510" width="570" height="280" fill="#fbfaf6" stroke="#d6d4ca"/><text x="750" y="550" class="tiny muted">TRANSPARENT RESULT</text><text x="750" y="600" class="serif" font-size="27">1 assumption requires confirmation</text><text x="750" y="650" class="muted" font-size="13">Current as of 6 Sep 2026 · SEC EDGAR</text><rect x="750" y="688" width="115" height="28" fill="#e1ebe6"/><text x="765" y="707" fill="#1d5446" font-size="10">● REPORTED</text><text x="750" y="755" fill="#a56b2b" font-size="12">! Missing inputs remain explicitly incomplete</text></svg>